<svg xmlns="http://www.w3.org/2000/svg" version="1.1" xmlns:xlink="http://www.w3.org/1999/xlink" xmlns:svgjs="http://svgjs.com/svgjs" width="1440" height="560" preserveAspectRatio="none" viewBox="0 0 1440 560"><g mask="url(&quot;#SvgjsMask1010&quot;)" fill="none"><rect width="1440" height="560" x="0" y="0" fill="url(#SvgjsLinearGradient1011)"></rect><path d="M0 0L23.5 0L0 15.1z" fill="rgba(255, 255, 255, .1)"></path><path d="M0 15.1L23.5 0L178.98 0L0 39.38z" fill="rgba(255, 255, 255, .075)"></path><path d="M0 39.38L178.98 0L775.51 0L0 84.16z" fill="rgba(255, 255, 255, .05)"></path><path d="M0 84.16L775.51 0L838.55 0L0 340.27z" fill="rgba(255, 255, 255, .025)"></path><path d="M1440 560L851.72 560L1440 447.98z" fill="rgba(0, 0, 0, .1)"></path><path d="M1440 447.98L851.72 560L613.86 560L1440 209.43z" fill="rgba(0, 0, 0, .075)"></path><path d="M1440 209.43L613.86 560L234.08000000000004 560L1440 138.04000000000002z" fill="rgba(0, 0, 0, .05)"></path><path d="M1440 138.04000000000002L234.07999999999993 560L134.6599999999999 560L1440 86.77000000000001z" fill="rgba(0, 0, 0, .025)"></path></g><defs><mask id="SvgjsMask1010"><rect width="1440" height="560" fill="#ffffff"></rect></mask><linearGradient x1="15.28%" y1="-39.29%" x2="84.72%" y2="139.29%" gradientUnits="userSpaceOnUse" id="SvgjsLinearGradient1011"><stop stop-color="#0e2a47" offset="0"></stop><stop stop-color="rgba(238, 238, 238, 1)" offset="1"></stop></linearGradient></defs></svg>